<svg xmlns="http://www.w3.org/2000/svg" viewBox="0 0 904 876" font-family="Inter, system-ui, sans-serif">
<rect width="904" height="876" fill="#0E0F13"/>
<text x="24" y="42" fill="#F2F3F5" font-size="24" font-weight="700">In-App Icon Set — 52 icons</text>
<text x="24" y="66" fill="#8A8D98" font-size="13">Transparent · currentColor (tints to any theme) · 24×24 · 2px stroke</text>
<rect x="28.0" y="90" width="92" height="80" rx="14" fill="#16171C"/>
<g transform="translate(54.0,106) scale(1.66)" fill="none" stroke="#E7E8EC" stroke-width="2" stroke-linecap="round" stroke-linejoin="round"><path d="M12 5v14M5 12h14"/></g>
<text x="74.0" y="186" fill="#9A9DA8" font-size="10" text-anchor="middle">add</text>
<rect x="136.0" y="90" width="92" height="80" rx="14" fill="#16171C"/>
<g transform="translate(162.0,106) scale(1.66)" fill="none" stroke="#E7E8EC" stroke-width="2" stroke-linecap="round" stroke-linejoin="round"><rect x="3" y="6" width="18" height="12" rx="2"/><path d="M8 10l-2 2 2 2M16 10l2 2-2 2"/></g>
<text x="182.0" y="186" fill="#9A9DA8" font-size="10" text-anchor="middle">aspect</text>
<rect x="244.0" y="90" width="92" height="80" rx="14" fill="#16171C"/>
<g transform="translate(270.0,106) scale(1.66)" fill="none" stroke="#E7E8EC" stroke-width="2" stroke-linecap="round" stroke-linejoin="round"><path d="M9 18V5l10-2v13"/><circle cx="6" cy="18" r="3"/><circle cx="16" cy="16" r="3"/></g>
<text x="290.0" y="186" fill="#9A9DA8" font-size="10" text-anchor="middle">audio-track</text>
<rect x="352.0" y="90" width="92" height="80" rx="14" fill="#16171C"/>
<g transform="translate(378.0,106) scale(1.66)" fill="none" stroke="#E7E8EC" stroke-width="2" stroke-linecap="round" stroke-linejoin="round"><path d="M19 12H5"/><path d="M12 19l-7-7 7-7"/></g>
<text x="398.0" y="186" fill="#9A9DA8" font-size="10" text-anchor="middle">back</text>
<rect x="460.0" y="90" width="92" height="80" rx="14" fill="#16171C"/>
<g transform="translate(486.0,106) scale(1.66)" fill="none" stroke="#E7E8EC" stroke-width="2" stroke-linecap="round" stroke-linejoin="round"><circle cx="12" cy="12" r="4"/><path d="M12 2v2M12 20v2M2 12h2M20 12h2M5 5l1.4 1.4M17.6 17.6L19 19M19 5l-1.4 1.4M6.4 17.6L5 19"/></g>
<text x="506.0" y="186" fill="#9A9DA8" font-size="10" text-anchor="middle">brightness</text>
<rect x="568.0" y="90" width="92" height="80" rx="14" fill="#16171C"/>
<g transform="translate(594.0,106) scale(1.66)" fill="none" stroke="#E7E8EC" stroke-width="2" stroke-linecap="round" stroke-linejoin="round"><path d="M2 16a5 5 0 0 1 5 5"/><path d="M2 12a9 9 0 0 1 9 9"/><path d="M2 8V6a2 2 0 0 1 2-2h16a2 2 0 0 1 2 2v12a2 2 0 0 1-2 2h-7"/></g>
<text x="614.0" y="186" fill="#9A9DA8" font-size="10" text-anchor="middle">cast</text>
<rect x="676.0" y="90" width="92" height="80" rx="14" fill="#16171C"/>
<g transform="translate(702.0,106) scale(1.66)" fill="none" stroke="#E7E8EC" stroke-width="2" stroke-linecap="round" stroke-linejoin="round"><path d="M5 12.5l4.5 4.5L20 6.5"/></g>
<text x="722.0" y="186" fill="#9A9DA8" font-size="10" text-anchor="middle">check</text>
<rect x="784.0" y="90" width="92" height="80" rx="14" fill="#16171C"/>
<g transform="translate(810.0,106) scale(1.66)" fill="none" stroke="#E7E8EC" stroke-width="2" stroke-linecap="round" stroke-linejoin="round"><path d="M6 9l6 6 6-6"/></g>
<text x="830.0" y="186" fill="#9A9DA8" font-size="10" text-anchor="middle">chevron-down</text>
<rect x="28.0" y="198" width="92" height="80" rx="14" fill="#16171C"/>
<g transform="translate(54.0,214) scale(1.66)" fill="none" stroke="#E7E8EC" stroke-width="2" stroke-linecap="round" stroke-linejoin="round"><path d="M9 6l6 6-6 6"/></g>
<text x="74.0" y="294" fill="#9A9DA8" font-size="10" text-anchor="middle">chevron-right</text>
<rect x="136.0" y="198" width="92" height="80" rx="14" fill="#16171C"/>
<g transform="translate(162.0,214) scale(1.66)" fill="none" stroke="#E7E8EC" stroke-width="2" stroke-linecap="round" stroke-linejoin="round"><path d="M6 6l12 12M18 6L6 18"/></g>
<text x="182.0" y="294" fill="#9A9DA8" font-size="10" text-anchor="middle">close</text>
<rect x="244.0" y="198" width="92" height="80" rx="14" fill="#16171C"/>
<g transform="translate(270.0,214) scale(1.66)" fill="none" stroke="#E7E8EC" stroke-width="2" stroke-linecap="round" stroke-linejoin="round"><path d="M4 7h16"/><path d="M9 7V5a2 2 0 0 1 2-2h2a2 2 0 0 1 2 2v2"/><path d="M6 7l1 13a2 2 0 0 0 2 2h6a2 2 0 0 0 2-2l1-13"/><path d="M10 11v6M14 11v6"/></g>
<text x="290.0" y="294" fill="#9A9DA8" font-size="10" text-anchor="middle">delete</text>
<rect x="352.0" y="198" width="92" height="80" rx="14" fill="#16171C"/>
<g transform="translate(378.0,214) scale(1.66)" fill="none" stroke="#E7E8EC" stroke-width="2" stroke-linecap="round" stroke-linejoin="round"><path d="M12 4v10"/><path d="M8 11l4 4 4-4"/><path d="M5 20h14"/></g>
<text x="398.0" y="294" fill="#9A9DA8" font-size="10" text-anchor="middle">download</text>
<rect x="460.0" y="198" width="92" height="80" rx="14" fill="#16171C"/>
<g transform="translate(486.0,214) scale(1.66)" fill="none" stroke="#E7E8EC" stroke-width="2" stroke-linecap="round" stroke-linejoin="round"><path d="M14 4l6 6L8 22l-6 2 2-6z"/><path d="M12.5 5.5l6 6"/></g>
<text x="506.0" y="294" fill="#9A9DA8" font-size="10" text-anchor="middle">edit</text>
<rect x="568.0" y="198" width="92" height="80" rx="14" fill="#16171C"/>
<g transform="translate(594.0,214) scale(1.66)" fill="none" stroke="#E7E8EC" stroke-width="2" stroke-linecap="round" stroke-linejoin="round"><path d="M5 21v-6M5 11V3M12 21v-8M12 9V3M19 21v-4M19 13V3"/><circle cx="5" cy="13" r="2"/><circle cx="12" cy="7" r="2"/><circle cx="19" cy="15" r="2"/></g>
<text x="614.0" y="294" fill="#9A9DA8" font-size="10" text-anchor="middle">equalizer</text>
<rect x="676.0" y="198" width="92" height="80" rx="14" fill="#16171C"/>
<g transform="translate(702.0,214) scale(1.66)" fill="none" stroke="#E7E8EC" stroke-width="2" stroke-linecap="round" stroke-linejoin="round"><path d="M4 5s3.5 5 8 5 8-5 8-5"/><path d="M2 12s4-7 10-7 10 7 10 7-4 7-10 7S2 12 2 12z" opacity="0"/><path d="M3 3l18 18" opacity="0"/><path d="M2 12s4-7 10-7 10 7 10 7-4 7-10 7S2 12 2 12z"/><circle cx="12" cy="12" r="3"/><path d="M3 3l18 18"/></g>
<text x="722.0" y="294" fill="#9A9DA8" font-size="10" text-anchor="middle">eye-off</text>
<rect x="784.0" y="198" width="92" height="80" rx="14" fill="#16171C"/>
<g transform="translate(810.0,214) scale(1.66)" fill="none" stroke="#E7E8EC" stroke-width="2" stroke-linecap="round" stroke-linejoin="round"><path d="M2 12s4-7 10-7 10 7 10 7-4 7-10 7S2 12 2 12z"/><circle cx="12" cy="12" r="3"/></g>
<text x="830.0" y="294" fill="#9A9DA8" font-size="10" text-anchor="middle">eye</text>
<rect x="28.0" y="306" width="92" height="80" rx="14" fill="#16171C"/>
<g transform="translate(54.0,322) scale(1.66)" fill="none" stroke="#E7E8EC" stroke-width="2" stroke-linecap="round" stroke-linejoin="round"><path d="M12 20S3.5 15 3.5 9.2A4.7 4.7 0 0 1 12 6a4.7 4.7 0 0 1 8.5 3.2C20.5 15 12 20 12 20z"/></g>
<text x="74.0" y="402" fill="#9A9DA8" font-size="10" text-anchor="middle">favorite</text>
<rect x="136.0" y="306" width="92" height="80" rx="14" fill="#16171C"/>
<g transform="translate(162.0,322) scale(1.66)" fill="none" stroke="#E7E8EC" stroke-width="2" stroke-linecap="round" stroke-linejoin="round"><path d="M4 5h16l-6.5 8v6l-3-1.6v-4.4z"/></g>
<text x="182.0" y="402" fill="#9A9DA8" font-size="10" text-anchor="middle">filter</text>
<rect x="244.0" y="306" width="92" height="80" rx="14" fill="#16171C"/>
<g transform="translate(270.0,322) scale(1.66)" fill="none" stroke="#E7E8EC" stroke-width="2" stroke-linecap="round" stroke-linejoin="round"><path d="M3 7a2 2 0 0 1 2-2h4l2 2h8a2 2 0 0 1 2 2v8a2 2 0 0 1-2 2H5a2 2 0 0 1-2-2z"/></g>
<text x="290.0" y="402" fill="#9A9DA8" font-size="10" text-anchor="middle">folder</text>
<rect x="352.0" y="306" width="92" height="80" rx="14" fill="#16171C"/>
<g transform="translate(378.0,322) scale(1.66)" fill="none" stroke="#E7E8EC" stroke-width="2" stroke-linecap="round" stroke-linejoin="round"><path d="M4 5l7 7-7 7z" fill="#E7E8EC"/><path d="M13 5l7 7-7 7z" fill="#E7E8EC"/></g>
<text x="398.0" y="402" fill="#9A9DA8" font-size="10" text-anchor="middle">forward</text>
<rect x="460.0" y="306" width="92" height="80" rx="14" fill="#16171C"/>
<g transform="translate(486.0,322) scale(1.66)" fill="none" stroke="#E7E8EC" stroke-width="2" stroke-linecap="round" stroke-linejoin="round"><path d="M8 3H5a2 2 0 0 0-2 2v3M16 3h3a2 2 0 0 1 2 2v3M8 21H5a2 2 0 0 1-2-2v-3M16 21h3a2 2 0 0 0 2-2v-3"/></g>
<text x="506.0" y="402" fill="#9A9DA8" font-size="10" text-anchor="middle">fullscreen</text>
<rect x="568.0" y="306" width="92" height="80" rx="14" fill="#16171C"/>
<g transform="translate(594.0,322) scale(1.66)" fill="none" stroke="#E7E8EC" stroke-width="2" stroke-linecap="round" stroke-linejoin="round"><rect x="4" y="4" width="7" height="7" rx="1.5"/><rect x="13" y="4" width="7" height="7" rx="1.5"/><rect x="4" y="13" width="7" height="7" rx="1.5"/><rect x="13" y="13" width="7" height="7" rx="1.5"/></g>
<text x="614.0" y="402" fill="#9A9DA8" font-size="10" text-anchor="middle">grid</text>
<rect x="676.0" y="306" width="92" height="80" rx="14" fill="#16171C"/>
<g transform="translate(702.0,322) scale(1.66)" fill="none" stroke="#E7E8EC" stroke-width="2" stroke-linecap="round" stroke-linejoin="round"><path d="M3 12a9 9 0 1 0 2.6-6.3L3 8"/><path d="M3 4v4h4"/><path d="M12 8v4l3 2"/></g>
<text x="722.0" y="402" fill="#9A9DA8" font-size="10" text-anchor="middle">history</text>
<rect x="784.0" y="306" width="92" height="80" rx="14" fill="#16171C"/>
<g transform="translate(810.0,322) scale(1.66)" fill="none" stroke="#E7E8EC" stroke-width="2" stroke-linecap="round" stroke-linejoin="round"><circle cx="12" cy="12" r="9"/><path d="M12 11v5.5"/><circle cx="12" cy="7.8" r="0.7" fill="#E7E8EC" stroke="none"/></g>
<text x="830.0" y="402" fill="#9A9DA8" font-size="10" text-anchor="middle">info</text>
<rect x="28.0" y="414" width="92" height="80" rx="14" fill="#16171C"/>
<g transform="translate(54.0,430) scale(1.66)" fill="none" stroke="#E7E8EC" stroke-width="2" stroke-linecap="round" stroke-linejoin="round"><path d="M8.5 6h11.5M8.5 12h11.5M8.5 18h11.5"/><circle cx="4.5" cy="6" r="1.4" fill="#E7E8EC" stroke="none"/><circle cx="4.5" cy="12" r="1.4" fill="#E7E8EC" stroke="none"/><circle cx="4.5" cy="18" r="1.4" fill="#E7E8EC" stroke="none"/></g>
<text x="74.0" y="510" fill="#9A9DA8" font-size="10" text-anchor="middle">list</text>
<rect x="136.0" y="414" width="92" height="80" rx="14" fill="#16171C"/>
<g transform="translate(162.0,430) scale(1.66)" fill="none" stroke="#E7E8EC" stroke-width="2" stroke-linecap="round" stroke-linejoin="round"><rect x="5" y="11" width="14" height="9" rx="2.5"/><path d="M8 11V8a4 4 0 0 1 8 0v3"/></g>
<text x="182.0" y="510" fill="#9A9DA8" font-size="10" text-anchor="middle">lock</text>
<rect x="244.0" y="414" width="92" height="80" rx="14" fill="#16171C"/>
<g transform="translate(270.0,430) scale(1.66)" fill="none" stroke="#E7E8EC" stroke-width="2" stroke-linecap="round" stroke-linejoin="round"><circle cx="12" cy="5" r="1.6" fill="#E7E8EC" stroke="none"/><circle cx="12" cy="12" r="1.6" fill="#E7E8EC" stroke="none"/><circle cx="12" cy="19" r="1.6" fill="#E7E8EC" stroke="none"/></g>
<text x="290.0" y="510" fill="#9A9DA8" font-size="10" text-anchor="middle">more-vert</text>
<rect x="352.0" y="414" width="92" height="80" rx="14" fill="#16171C"/>
<g transform="translate(378.0,430) scale(1.66)" fill="none" stroke="#E7E8EC" stroke-width="2" stroke-linecap="round" stroke-linejoin="round"><path d="M11 5L6 9H3v6h3l5 4z" fill="#E7E8EC"/><path d="M16 9l6 6M22 9l-6 6"/></g>
<text x="398.0" y="510" fill="#9A9DA8" font-size="10" text-anchor="middle">mute</text>
<rect x="460.0" y="414" width="92" height="80" rx="14" fill="#16171C"/>
<g transform="translate(486.0,430) scale(1.66)" fill="none" stroke="#E7E8EC" stroke-width="2" stroke-linecap="round" stroke-linejoin="round"><path d="M9 17V4l9-1.8V13"/><circle cx="6.5" cy="17" r="2.6"/><circle cx="15.5" cy="15.5" r="2.6"/></g>
<text x="506.0" y="510" fill="#9A9DA8" font-size="10" text-anchor="middle">nav-audio</text>
<rect x="568.0" y="414" width="92" height="80" rx="14" fill="#16171C"/>
<g transform="translate(594.0,430) scale(1.66)" fill="none" stroke="#E7E8EC" stroke-width="2" stroke-linecap="round" stroke-linejoin="round"><path d="M4 11.5a11 11 0 0 1 16 0"/><path d="M7.5 15a6.5 6.5 0 0 1 9 0"/><circle cx="12" cy="18.5" r="1.4" fill="#E7E8EC" stroke="none"/></g>
<text x="614.0" y="510" fill="#9A9DA8" font-size="10" text-anchor="middle">nav-network</text>
<rect x="676.0" y="414" width="92" height="80" rx="14" fill="#16171C"/>
<g transform="translate(702.0,430) scale(1.66)" fill="none" stroke="#E7E8EC" stroke-width="2" stroke-linecap="round" stroke-linejoin="round"><rect x="3" y="6" width="18" height="12" rx="2.5"/><path d="M10 9.5l5 2.5-5 2.5z" fill="#E7E8EC"/></g>
<text x="722.0" y="510" fill="#9A9DA8" font-size="10" text-anchor="middle">nav-video</text>
<rect x="784.0" y="414" width="92" height="80" rx="14" fill="#16171C"/>
<g transform="translate(810.0,430) scale(1.66)" fill="none" stroke="#E7E8EC" stroke-width="2" stroke-linecap="round" stroke-linejoin="round"><path d="M5 5l9 7-9 7z" fill="#E7E8EC"/><rect x="16.5" y="5" width="2.8" height="14" rx="1.2" fill="#E7E8EC" stroke="none"/></g>
<text x="830.0" y="510" fill="#9A9DA8" font-size="10" text-anchor="middle">next</text>
<rect x="28.0" y="522" width="92" height="80" rx="14" fill="#16171C"/>
<g transform="translate(54.0,538) scale(1.66)" fill="none" stroke="#E7E8EC" stroke-width="2" stroke-linecap="round" stroke-linejoin="round"><rect x="6" y="5" width="4" height="14" rx="1.5" fill="#E7E8EC" stroke="none"/><rect x="14" y="5" width="4" height="14" rx="1.5" fill="#E7E8EC" stroke="none"/></g>
<text x="74.0" y="618" fill="#9A9DA8" font-size="10" text-anchor="middle">pause</text>
<rect x="136.0" y="522" width="92" height="80" rx="14" fill="#16171C"/>
<g transform="translate(162.0,538) scale(1.66)" fill="none" stroke="#E7E8EC" stroke-width="2" stroke-linecap="round" stroke-linejoin="round"><rect x="3" y="4" width="18" height="16" rx="2.5"/><rect x="11.5" y="11.5" width="7" height="5.5" rx="1.2" fill="#E7E8EC" stroke="none"/></g>
<text x="182.0" y="618" fill="#9A9DA8" font-size="10" text-anchor="middle">pip</text>
<rect x="244.0" y="522" width="92" height="80" rx="14" fill="#16171C"/>
<g transform="translate(270.0,538) scale(1.66)" fill="none" stroke="#E7E8EC" stroke-width="2" stroke-linecap="round" stroke-linejoin="round"><path d="M8 5l11 7-11 7z" fill="#E7E8EC"/></g>
<text x="290.0" y="618" fill="#9A9DA8" font-size="10" text-anchor="middle">play</text>
<rect x="352.0" y="522" width="92" height="80" rx="14" fill="#16171C"/>
<g transform="translate(378.0,538) scale(1.66)" fill="none" stroke="#E7E8EC" stroke-width="2" stroke-linecap="round" stroke-linejoin="round"><path d="M4 7h11M4 12h11M4 17h6"/><path d="M16 10v8" /><path d="M16 18l4-2-4-2z" fill="#E7E8EC"/></g>
<text x="398.0" y="618" fill="#9A9DA8" font-size="10" text-anchor="middle">playlist</text>
<rect x="460.0" y="522" width="92" height="80" rx="14" fill="#16171C"/>
<g transform="translate(486.0,538) scale(1.66)" fill="none" stroke="#E7E8EC" stroke-width="2" stroke-linecap="round" stroke-linejoin="round"><path d="M19 5l-9 7 9 7z" fill="#E7E8EC"/><rect x="4.7" y="5" width="2.8" height="14" rx="1.2" fill="#E7E8EC" stroke="none"/></g>
<text x="506.0" y="618" fill="#9A9DA8" font-size="10" text-anchor="middle">previous</text>
<rect x="568.0" y="522" width="92" height="80" rx="14" fill="#16171C"/>
<g transform="translate(594.0,538) scale(1.66)" fill="none" stroke="#E7E8EC" stroke-width="2" stroke-linecap="round" stroke-linejoin="round"><path d="M17 2l4 4-4 4"/><path d="M3 11V9a4 4 0 0 1 4-4h14"/><path d="M7 22l-4-4 4-4"/><path d="M21 13v2a4 4 0 0 1-4 4H3"/><path d="M11.5 10.5l1-.5v4" stroke-width="1.6"/></g>
<text x="614.0" y="618" fill="#9A9DA8" font-size="10" text-anchor="middle">repeat-one</text>
<rect x="676.0" y="522" width="92" height="80" rx="14" fill="#16171C"/>
<g transform="translate(702.0,538) scale(1.66)" fill="none" stroke="#E7E8EC" stroke-width="2" stroke-linecap="round" stroke-linejoin="round"><path d="M17 2l4 4-4 4"/><path d="M3 11V9a4 4 0 0 1 4-4h14"/><path d="M7 22l-4-4 4-4"/><path d="M21 13v2a4 4 0 0 1-4 4H3"/></g>
<text x="722.0" y="618" fill="#9A9DA8" font-size="10" text-anchor="middle">repeat</text>
<rect x="784.0" y="522" width="92" height="80" rx="14" fill="#16171C"/>
<g transform="translate(810.0,538) scale(1.66)" fill="none" stroke="#E7E8EC" stroke-width="2" stroke-linecap="round" stroke-linejoin="round"><path d="M20 5l-7 7 7 7z" fill="#E7E8EC"/><path d="M11 5l-7 7 7 7z" fill="#E7E8EC"/></g>
<text x="830.0" y="618" fill="#9A9DA8" font-size="10" text-anchor="middle">rewind</text>
<rect x="28.0" y="630" width="92" height="80" rx="14" fill="#16171C"/>
<g transform="translate(54.0,646) scale(1.66)" fill="none" stroke="#E7E8EC" stroke-width="2" stroke-linecap="round" stroke-linejoin="round"><path d="M21 12a9 9 0 1 1-3-6.7"/><path d="M21 3v4h-4"/></g>
<text x="74.0" y="726" fill="#9A9DA8" font-size="10" text-anchor="middle">rotate</text>
<rect x="136.0" y="630" width="92" height="80" rx="14" fill="#16171C"/>
<g transform="translate(162.0,646) scale(1.66)" fill="none" stroke="#E7E8EC" stroke-width="2" stroke-linecap="round" stroke-linejoin="round"><rect x="3" y="7" width="18" height="13" rx="2.5"/><circle cx="12" cy="13.5" r="3.5"/><path d="M8.5 7l1.3-2h4.4L15.5 7"/></g>
<text x="182.0" y="726" fill="#9A9DA8" font-size="10" text-anchor="middle">screenshot</text>
<rect x="244.0" y="630" width="92" height="80" rx="14" fill="#16171C"/>
<g transform="translate(270.0,646) scale(1.66)" fill="none" stroke="#E7E8EC" stroke-width="2" stroke-linecap="round" stroke-linejoin="round"><circle cx="11" cy="11" r="7"/><path d="M21 21l-4.3-4.3"/></g>
<text x="290.0" y="726" fill="#9A9DA8" font-size="10" text-anchor="middle">search</text>
<rect x="352.0" y="630" width="92" height="80" rx="14" fill="#16171C"/>
<g transform="translate(378.0,646) scale(1.66)" fill="none" stroke="#E7E8EC" stroke-width="2" stroke-linecap="round" stroke-linejoin="round"><circle cx="12" cy="12" r="3.5"/><path d="M12 2v3M12 19v3M2 12h3M19 12h3M4.9 4.9l2.1 2.1M17 17l2.1 2.1M19.1 4.9L17 7M7 17l-2.1 2.1"/></g>
<text x="398.0" y="726" fill="#9A9DA8" font-size="10" text-anchor="middle">settings</text>
<rect x="460.0" y="630" width="92" height="80" rx="14" fill="#16171C"/>
<g transform="translate(486.0,646) scale(1.66)" fill="none" stroke="#E7E8EC" stroke-width="2" stroke-linecap="round" stroke-linejoin="round"><circle cx="6" cy="12" r="2.6"/><circle cx="18" cy="6" r="2.6"/><circle cx="18" cy="18" r="2.6"/><path d="M8.3 10.8l7.4-3.8M8.3 13.2l7.4 3.8"/></g>
<text x="506.0" y="726" fill="#9A9DA8" font-size="10" text-anchor="middle">share</text>
<rect x="568.0" y="630" width="92" height="80" rx="14" fill="#16171C"/>
<g transform="translate(594.0,646) scale(1.66)" fill="none" stroke="#E7E8EC" stroke-width="2" stroke-linecap="round" stroke-linejoin="round"><path d="M18 4l3 3-3 3"/><path d="M18 20l3-3-3-3"/><path d="M3 7h3.5c2 0 3 1.2 5 4.5s3 4.5 5 4.5H21"/><path d="M3 17h3.5c1.6 0 2.6-.8 3.7-2.4"/><path d="M14.8 9.4C15.9 7.8 16.9 7 18.5 7H21"/></g>
<text x="614.0" y="726" fill="#9A9DA8" font-size="10" text-anchor="middle">shuffle</text>
<rect x="676.0" y="630" width="92" height="80" rx="14" fill="#16171C"/>
<g transform="translate(702.0,646) scale(1.66)" fill="none" stroke="#E7E8EC" stroke-width="2" stroke-linecap="round" stroke-linejoin="round"><path d="M4 7h10M4 12h7M4 17h4"/><path d="M18 5v13M18 18l3-3M18 18l-3-3"/></g>
<text x="722.0" y="726" fill="#9A9DA8" font-size="10" text-anchor="middle">sort</text>
<rect x="784.0" y="630" width="92" height="80" rx="14" fill="#16171C"/>
<g transform="translate(810.0,646) scale(1.66)" fill="none" stroke="#E7E8EC" stroke-width="2" stroke-linecap="round" stroke-linejoin="round"><path d="M20 13a8 8 0 1 0-16 0"/><path d="M12 13l4-3"/><path d="M2 13h2M20 13h2M12 3v2"/></g>
<text x="830.0" y="726" fill="#9A9DA8" font-size="10" text-anchor="middle">speed</text>
<rect x="28.0" y="738" width="92" height="80" rx="14" fill="#16171C"/>
<g transform="translate(54.0,754) scale(1.66)" fill="none" stroke="#E7E8EC" stroke-width="2" stroke-linecap="round" stroke-linejoin="round"><rect x="6" y="6" width="12" height="12" rx="2.5" fill="#E7E8EC" stroke="none"/></g>
<text x="74.0" y="834" fill="#9A9DA8" font-size="10" text-anchor="middle">stop</text>
<rect x="136.0" y="738" width="92" height="80" rx="14" fill="#16171C"/>
<g transform="translate(162.0,754) scale(1.66)" fill="none" stroke="#E7E8EC" stroke-width="2" stroke-linecap="round" stroke-linejoin="round"><rect x="3" y="5" width="18" height="14" rx="3"/><path d="M6.5 12h4M13.5 12h4M6.5 15h7"/></g>
<text x="182.0" y="834" fill="#9A9DA8" font-size="10" text-anchor="middle">subtitles</text>
<rect x="244.0" y="738" width="92" height="80" rx="14" fill="#16171C"/>
<g transform="translate(270.0,754) scale(1.66)" fill="none" stroke="#E7E8EC" stroke-width="2" stroke-linecap="round" stroke-linejoin="round"><circle cx="12" cy="13" r="8"/><path d="M12 9v4l2.5 1.8"/><path d="M9 2h6"/></g>
<text x="290.0" y="834" fill="#9A9DA8" font-size="10" text-anchor="middle">timer</text>
<rect x="352.0" y="738" width="92" height="80" rx="14" fill="#16171C"/>
<g transform="translate(378.0,754) scale(1.66)" fill="none" stroke="#E7E8EC" stroke-width="2" stroke-linecap="round" stroke-linejoin="round"><path d="M11 5L6 9H3v6h3l5 4z" fill="#E7E8EC"/><path d="M15.5 8.5a5 5 0 0 1 0 7"/><path d="M18.5 5.5a9 9 0 0 1 0 13"/></g>
<text x="398.0" y="834" fill="#9A9DA8" font-size="10" text-anchor="middle">volume</text>
</svg>